{"title":"scooby doo mystery incorporated HDTV 1280x720 all episods 01-26 ","uid":6648880,"size":2566849000,"categoryP":"video","categoryS":"hd___tv_shows","magnet":"?xt=urn:btih:d6690ae8aee469a461f65fcca47615c95e43f1f5&amp;dn=scooby+doo+mystery+incorporated+HDTV+1280x720+all+episods+01-26+&amp;tr=udp%3A%2F%2Ftracker.openbittorrent.com%3A80&amp;tr=udp%3A%2F%2Fopen.demonii.com%3A1337&amp;tr=udp%3A%2F%2Ftracker.coppersurfer.tk%3A6969&amp;tr=udp%3A%2F%2Fexodus.desync.com%3A6969","seeders":0,"leechers":0,"uploader":"salmansk","files":28,"time":1315056973,"description":"you can check out screen shots at..........\n\n\n\n\n\n\n\n\n\n\nGeneral                   : \nFormat                           : MPEG-4\nFormat profile                   : Base Media\nCodec ID                         : isom\nFile size                        : 96.4 MiB\nDuration                         : 22mn 26s\nOverall bit rate                 : 601 Kbps\n\nVideo\nID                               : 1\nFormat                           : AVC\nFormat/Info                      : Advanced Video Codec\nFormat profile                   : &lt;a class=&quot;__cf_email__&quot; href=&quot;/cdn-cgi/l/email-protection&quot; data-cfemail=&quot;2a62434d426a661f041b&quot;&gt;[email&amp;#160;protected]&lt;/a&gt;&lt;script data-cfhash='f9e31' type=&quot;text/javascript&quot;&gt;\n/* &lt;![CDATA[ */!function(){try{var t=&quot;currentScript&quot;in document?document.currentScript:function(){for(var t=document.getElementsByTagName(&quot;script&quot;),e=t.length;e--;)if(t[e].getAttribute(&quot;data-cfhash&quot;))return t[e]}();if(t&amp;&amp;t.previousSibling){var e,r,n,i,c=t.previousSibling,a=c.getAttribute(&quot;data-cfemail&quot;);if(a){for(e=&quot;&quot;,r=parseInt(a.substr(0,2),16),n=2;a.length-n;n+=2)i=parseInt(a.substr(n,2),16)^r,e+=String.fromCharCode(i);e=document.createTextNode(e),c.parentNode.replaceChild(e,c)}t.parentNode.removeChild(t);}}catch(u){}}()/* ]]&gt; */&lt;/script&gt;\nFormat settings, CABAC           : Yes\nFormat settings, ReFrames        : 8 frames\nCodec ID                         : avc1\nCodec ID/Info                    : Advanced Video Coding\nDuration                         : 22mn 26s\nBit rate mode                    : Variable\nBit rate                         : 550 Kbps\nMaximum bit rate                 : 2 849 Kbps\nWidth                            : 1 280 pixels\nHeight                           : 720 pixels\nDisplay aspect ratio             : 16:9\nOriginal display aspect ratio    : 16:9\nFrame rate mode                  : Constant\nFrame rate                       : 23.976 fps\nColor space                      : YUV\nChroma subsampling               : 4:2:0\nBit depth                        : 8 bits\nScan type                        : Progressive\nBits/(Pixel*Frame)               : 0.025\nStream size                      : 88.3 MiB (92%)\nWriting library                  : x264 core 56 svn-676\n\nAudio\nID                               : 2\nFormat                           : AAC\nFormat/Info                      : Advanced Audio Codec\nFormat profile                   : HE-AACv2 / HE-AAC / LC\nCodec ID                         : 40\nDuration                         : 22mn 26s\nBit rate mode                    : Variable\nBit rate                         : 48.0 Kbps\nMaximum bit rate                 : 53.2 Kbps\nChannel(s)                       : 2 channels / 2 channels / 2 channels\nChannel positions                : Front: L R / Front: L R / Front: L R\nSampling rate                    : 48.0 KHz / 48.0 KHz / 24.0 KHz\nCompression mode                 : Lossy\nStream size                      : 7.71 MiB (8%)\n","torrent":{"xt":"urn:btih:d6690ae8aee469a461f65fcca47615c95e43f1f5","amp;dn":"scooby+doo+mystery+incorporated+HDTV+1280x720+all+episods+01-26+","amp;tr":["udp%3A%2F%2Ftracker.openbittorrent.com%3A80","udp%3A%2F%2Fopen.demonii.com%3A1337","udp%3A%2F%2Ftracker.coppersurfer.tk%3A6969","udp%3A%2F%2Fexodus.desync.com%3A6969"],"infoHash":"d6690ae8aee469a461f65fcca47615c95e43f1f5","infoHashBuffer":{"type":"Buffer","data":[214,105,10,232,174,228,105,164,97,246,95,204,164,118,21,201,94,67,241,245]},"announce":[],"urlList":[]}}